<?xml version="1.0" standalone="no"?>
<!DOCTYPE svg PUBLIC "-//W3C//DTD SVG 1.1//EN" "http://www.w3.org/Graphics/SVG/1.1/DTD/svg11.dtd" >
<!--
2013-9-30: Created.
-->
<svg>
<metadata>
Created by iconfont
</metadata>
<defs>

<font id="iconfont" horiz-adv-x="1024" >
  <font-face
    font-family="iconfont"
    font-weight="500"
    font-stretch="normal"
    units-per-em="1024"
    ascent="896"
    descent="-128"
  />
    <missing-glyph />
    
    <glyph glyph-name="12" unicode="&#58887;" d="M512.008 678.267c-238.957 0-433.365-157.612-433.365-351.347 0-107.745 58.932-207.048 162.188-274.129-23.449-54.443-64.458-99.406-116.448-127.395l-43.823-23.569 49.798-3.057c11.034-0.674 22.188-1.036 33.428-1.036 48.762 0 97.869 6.424 145.992 19.098 52.889 13.917 101.996 34.689 146.078 61.712 18.613-1.968 37.504-2.952 56.152-2.952 238.957 0 433.348 157.612 433.348 351.347 0 193.716-194.408 351.328-433.348 351.328zM286.385 47.991l8.7 22.816-20.921 12.835c-96.246 58.909-151.446 147.593-151.446 243.313 0 81.357 40.082 158.154 112.864 216.244 35.789 28.564 77.497 51.016 123.967 66.73 48.288 16.329 99.571 24.609 152.423 24.609 52.849 0 104.127-8.279 152.413-24.609 46.467-15.714 88.175-38.166 123.962-66.73 72.781-58.090 112.863-134.888 112.863-216.247 0.016-81.362-40.056-158.164-112.833-216.258-35.785-28.566-77.49-51.016-123.958-66.731-48.285-16.329-99.564-24.609-152.412-24.609-18.738 0-37.626 1.081-56.119 3.212l-10.384 1.209-8.916-5.562c-41.375-25.966-87.848-45.841-138.131-59.075-25.498-6.718-51.336-11.539-77.223-14.421 28.248 29.543 50.444 64.616 65.15 103.273z"  horiz-adv-x="1024" />

    
    <glyph glyph-name="location" unicode="&#58885;" d="M853.046 646.109c-5.923 14.656-22.561 21.774-37.186 15.908-14.629-5.859-21.778-22.503-15.973-37.157 17.479-43.635 26.577-85.175 26.577-126.608 0-53.663-33.165-136.187-92.683-237.59-21.778-36.963-46.57-75.769-73.878-115.804-37.125-54.496-76.992-108.596-116.857-159.748-11.027-14.133-21.424-27.241-31.045-39.188-9.629 11.947-20.023 25.054-31.046 39.188-39.871 51.152-79.712 105.253-116.869 159.748-27.3 40.036-52.122 78.842-73.841 115.804-59.548 101.403-92.718 183.927-92.718 237.59 0 172.893 141.572 314.468 314.475 314.468 58.57 0 116.357-17.478 167.728-49.89 13.295-8.431 30.938-4.468 39.423 8.908 8.372 13.341 4.462 30.986-8.931 39.418-60.309 38.082-128.597 58.741-198.218 58.741-204.476 0-371.648-167.172-371.648-371.643 0-66.867 36.179-156.906 100.588-266.567 22.421-38.076 47.907-77.946 75.91-119.04 37.882-55.61 78.444-110.559 118.989-162.591 14.21-18.259 27.381-34.839 39.22-49.36 7.143-8.819 12.259-14.966 15.052-18.31 11.414-13.625 32.351-13.625 43.772 0 2.791 3.344 7.932 9.491 15.076 18.31 11.834 14.523 25.012 31.103 39.193 49.36 40.538 52.034 81.078 106.981 118.989 162.591 27.974 41.094 53.488 80.96 75.878 119.04 64.441 109.665 100.62 199.701 100.62 266.567 0.002 49.241-10.606 97.823-30.596 147.853l0 0zM340.474 486.805c0-89.98 72.948-162.933 162.96-162.933 89.971 0 162.955 72.954 162.955 162.933 0 90.01-72.983 162.958-162.955 162.958-90.011 0-162.96-72.946-162.96-162.958l0 0zM609.207 486.805c0-58.405-47.399-105.758-105.776-105.758-58.436 0-105.785 47.354-105.785 105.758 0 58.429 47.347 105.776 105.785 105.776 58.374 0 105.776-47.347 105.776-105.776l0 0zM609.207 486.805z"  horiz-adv-x="1024" />

    
    <glyph glyph-name="tubiao13" unicode="&#58894;" d="M191.263056 128.401667c0-35.389673-28.636551-64.088648-63.962775-64.088648-35.452097 0-64.088648 28.698976-64.088648 64.088648 0 35.2638 28.636551 63.964822 64.088648 63.964822C162.626505 192.366489 191.263056 163.665467 191.263056 128.401667zM319.315503 192.366489l576.232941 0 0-128.05347-576.232941 0 0 128.05347ZM383.34275 128.401667c0-35.389673-28.636551-64.088648-63.965846-64.088648-35.451074 0-64.087625 28.698976-64.087625 64.088648 0 35.2638 28.636551 63.964822 64.087625 63.964822C354.706199 192.366489 383.34275 163.665467 383.34275 128.401667zM959.573645 128.401667c0-35.389673-28.634504-64.088648-63.961752-64.088648-35.452097 0-64.088648 28.698976-64.088648 64.088648 0 35.2638 28.636551 63.964822 64.088648 63.964822C930.93914 192.366489 959.573645 163.665467 959.573645 128.401667zM191.263056 384.506561c0-35.391719-28.636551-64.088648-63.962775-64.088648-35.452097 0-64.088648 28.696929-64.088648 64.088648 0 35.265847 28.636551 63.963799 64.088648 63.963799C162.626505 448.47036 191.263056 419.772407 191.263056 384.506561zM319.315503 448.47036l576.232941 0 0-128.052447-576.232941 0 0 128.052447ZM383.34275 384.506561c0-35.391719-28.636551-64.088648-63.965846-64.088648-35.451074 0-64.087625 28.696929-64.087625 64.088648 0 35.265847 28.636551 63.963799 64.087625 63.963799C354.706199 448.47036 383.34275 419.772407 383.34275 384.506561zM959.573645 384.506561c0-35.391719-28.634504-64.088648-63.961752-64.088648-35.452097 0-64.088648 28.696929-64.088648 64.088648 0 35.265847 28.636551 63.963799 64.088648 63.963799C930.93914 448.47036 959.573645 419.772407 959.573645 384.506561zM191.263056 640.611455c0-35.389673-28.636551-64.088648-63.962775-64.088648-35.452097 0-64.088648 28.698976-64.088648 64.088648 0 35.264823 28.636551 63.960729 64.088648 63.960729C162.626505 704.573207 191.263056 675.877301 191.263056 640.611455zM319.315503 704.573207l576.232941 0 0-128.0504-576.232941 0 0 128.0504ZM383.34275 640.611455c0-35.389673-28.636551-64.088648-63.965846-64.088648-35.451074 0-64.087625 28.698976-64.087625 64.088648 0 35.264823 28.636551 63.960729 64.087625 63.960729C354.706199 704.573207 383.34275 675.877301 383.34275 640.611455zM959.573645 640.611455c0-35.389673-28.634504-64.088648-63.961752-64.088648-35.452097 0-64.088648 28.698976-64.088648 64.088648 0 35.264823 28.636551 63.960729 64.088648 63.960729C930.93914 704.573207 959.573645 675.877301 959.573645 640.611455z"  horiz-adv-x="1025" />

    
    <glyph glyph-name="pinglun" unicode="&#58893;" d="M949.570847 683.326273l-41.801035-41.517579L768.565377 780.156622l41.801035 41.459251c15.340383 15.283078 39.522132 16.084327 53.892421 1.768273l87.024006-86.454024C965.710432 722.617138 964.91123 698.606281 949.570847 683.326273L949.570847 683.326273zM580.373227 316.405509 441.169815 454.755484l306.238706 304.299541 139.205459-138.348951L580.373227 316.405509 580.373227 316.405509zM560.984644 297.130514l-194.863083-55.314817 55.659671 193.666838L560.984644 297.130514 560.984644 297.130514zM236.551554 717.881276c-48.13223 0-87.081311-38.949081-87.081311-87.024006l0-522.372232c0-48.062646 38.962384-87.026052 87.026052-87.026052l522.485819 0c48.063669 0 87.028099 38.963407 87.028099 87.028099L846.010213 456.751954l87.079264 87.028099 0-464.321094c0-80.124875-64.954361-145.078213-145.078213-145.078213L207.468169-65.619254c-80.124875 0-145.078213 64.954361-145.078213 145.078213L62.389956 659.885398c0 80.124875 64.954361 145.078213 145.078213 145.078213l464.435705 0-87.083357-87.083357L236.551554 717.880253 236.551554 717.881276z"  horiz-adv-x="1024" />

    
    <glyph glyph-name="shoucangxing" unicode="&#59411;" d="M895.40992 577.28 628.52992 578.56 540.84992 850.56c0 0.64-0.64 0.64-0.64 1.92C529.32992 881.28 504.36992 896 479.40992 896 454.44992 896 429.48992 881.28 418.60992 852.48c0-0.64-0.64-0.64-0.64-1.92L330.28992 578.56 63.40992 577.28C1.96992 576-22.99008 498.56 25.64992 459.52l213.12-168.96-77.44-266.88C147.24992-23.04 183.08992-64 223.40992-64c12.16 0 24.96 3.84 36.48 12.16l219.52 160 219.52-160C710.44992-60.16 723.24992-64 735.40992-64c39.68 0 75.52 40.32 61.44 87.68l-77.44 266.88 213.12 168.96C981.16992 498.56 956.84992 576 895.40992 577.28zM678.44992 347.52c-23.04-17.92-32.64-48.64-24.32-77.44l74.24-256.64L518.44992 167.04c-11.52 8.32-25.6 12.8-39.04 12.8-13.44 0-27.52-4.48-39.04-12.8l-210.56-152.96 74.24 256.64c8.32 28.8-1.28 59.52-24.32 77.44L75.56992 512l256-0.64C359.72992 512 385.32992 531.2 394.28992 559.36l84.48 259.2 84.48-257.28C573.48992 533.12 598.44992 513.92 627.24992 513.28l257.92 0.64L678.44992 347.52z"  horiz-adv-x="1025" />

    
    <glyph glyph-name="aixin" unicode="&#58882;" d="M512-23.194002l-64.352657 58.361199C219.085764 242.646622 68.191078 379.561921 68.191078 547.099658c0 136.915299 107.180068 244.094344 244.094344 244.094344 77.222779 0 151.3388-35.948747 199.713554-92.53451 48.374754 56.585763 122.490775 92.53451 199.713554 92.53451 136.915299 0 244.094344-107.180068 244.094344-244.094344 0-167.537737-150.894685-304.453037-379.456265-511.933485L512-23.194002z"  horiz-adv-x="1024" />

    
    <glyph glyph-name="zhiyuansousuo9" unicode="&#58940;" d="M955.069071 31.688979 740.015134 246.741893c-3.752464 3.751441-8.841366 5.860475-14.149255 5.860475-5.306866 0-10.395768-2.108011-14.149255-5.860475l-16.692171-16.692171-38.34226 38.34226c53.03796 59.810201 85.298711 138.442072 85.298711 224.478588 0 186.774871-151.952784 338.727655-338.727655 338.727655S64.527642 679.64544 64.527642 492.87057c0-186.775894 151.952784-338.728678 338.727655-338.728678 86.36909 0 165.276231 32.510438 225.170343 85.913718l38.303374-38.303374-17.34504-17.34504c-7.812943-7.813966-7.812943-20.48352 0-28.297486l215.051891-215.052914c3.753487-3.751441 8.841366-5.860475 14.149255-5.860475 5.306866 0 10.395768 2.108011 14.149255 5.860475l62.334697 62.334697C962.883037 11.205459 962.883037 23.875013 955.069071 31.688979zM104.546078 492.87057c0 164.709319 133.9999 298.709219 298.709219 298.709219s298.709219-133.9999 298.709219-298.709219S567.964616 194.160327 403.255297 194.160327 104.546078 328.161251 104.546078 492.87057zM878.585119-16.496463 691.829691 170.258964l34.036187 34.036187 186.755428-186.755428L878.585119-16.496463z"  horiz-adv-x="1024" />

    
    <glyph glyph-name="guanbi" unicode="&#58884;" d="M762.332419 771.768581 702.050474 832.038246 261.667581 384.169869 702.050474-63.696462 762.332419-3.423727 400.015509 384.167822Z"  horiz-adv-x="1024" />

    
    <glyph glyph-name="wode1" unicode="&#58886;" d="M527.539416-58.232007c-61.953004 0-122.05894 12.136412-178.649819 36.07359-54.653761 23.11751-103.736643 56.210209-145.884578 98.358145-42.147936 42.147936-75.240635 91.229794-98.358145 145.884578-23.937179 56.589856-36.07359 116.696816-36.07359 178.649819 0 61.953004 12.136412 122.057917 36.07359 178.64368 23.11751 54.649668 56.210209 103.728456 98.358145 145.871275 42.147936 42.142819 91.229794 75.230402 145.884578 98.343819 56.588833 23.932062 116.694769 36.06745 178.648796 36.06745 61.953004 0 122.056893-12.134365 178.642656-36.06745 54.650691-23.113417 103.728456-56.201 145.872299-98.343819 42.142819-42.142819 75.230402-91.221608 98.343819-145.871275 23.932062-56.585763 36.066427-116.689652 36.066427-178.64368s-12.134365-122.05894-36.066427-178.648796c-23.11444-54.654784-56.202023-103.737666-98.343819-145.885602-42.143842-42.147936-91.221608-75.240635-145.871275-98.358145C649.59631-46.095595 589.49242-58.232007 527.539416-58.232007zM527.539416 838.295763c-241.294578 0-437.601546-196.289572-437.601546-437.562661 0-241.294578 196.306968-437.601546 437.601546-437.601546 241.272066 0 437.562661 196.306968 437.562661 437.601546C965.102077 642.006192 768.811482 838.295763 527.539416 838.295763zM527.539416-63.348538c-62.641689 0-123.418914 12.272511-180.642197 36.476773-55.263651 23.376407-104.892979 56.836473-147.509588 99.453083-42.61661 42.615587-76.076676 92.244914-99.45206 147.508565-24.204262 57.222259-36.477796 118.000508-36.477796 180.642197 0 62.642712 12.273535 123.416867 36.477796 180.63708 23.375383 55.259558 56.836473 104.884792 99.453083 147.496286 42.61661 42.611493 92.245937 76.066443 147.509588 99.437733 57.223283 24.200168 117.999484 36.471656 180.641173 36.471656s123.415844-12.270465 180.635033-36.471656c55.260581-23.37129 104.885815-56.827263 147.497309-99.438757 42.61047-42.61047 76.066443-92.234681 99.438757-147.496286 24.200168-57.220213 36.471656-117.995391 36.471656-180.636057 0-62.640666-12.270465-123.416867-36.470633-180.641173-23.373337-55.265698-56.828286-104.895025-99.438757-147.509588-42.612517-42.61661-92.237751-76.078723-147.496286-99.453083C650.956284-51.076026 590.181105-63.348538 527.539416-63.348538zM527.539416 854.542796c-61.265342 0-120.699989-11.999288-176.655396-35.663244-54.04387-22.855544-102.580307-55.57576-144.260591-97.249905-41.680285-41.675168-74.40357-90.206488-97.263208-144.246265-23.668049-55.951313-35.669384-115.38596-35.669384-176.650279s12.001335-120.701013 35.669384-176.655396c22.859637-54.04387 55.582923-102.580307 97.263208-144.260591 41.679261-41.679261 90.215698-74.404594 144.259568-97.264231 55.955406-23.668049 115.391077-35.668361 176.656419-35.668361 61.264319 0 120.697943 12.001335 176.650279 35.668361 54.039777 22.859637 102.571097 55.582923 144.246265 97.264231 41.675168 41.678238 74.393337 90.214674 97.249905 144.260591 23.663956 55.95643 35.663244 115.3921 35.663244 176.655396 0 61.264319-11.999288 120.697943-35.663244 176.650279-22.856567 54.041824-55.576783 102.573143-97.248881 144.246265-41.676192 41.675168-90.207511 74.394361-144.247288 97.249905C648.237359 842.544531 588.803735 854.542796 527.539416 854.542796zM527.539416-41.984974c-244.115833 0-442.718077 198.602244-442.718077 442.718077 0 244.094344 198.603267 442.679192 442.718077 442.679192 244.093321 0 442.679192-198.585871 442.679192-442.679192C970.218608 156.617269 771.632737-41.984974 527.539416-41.984974zM527.539416 833.179232c-238.473323 0-432.485015-193.994296-432.485015-432.44613 0-238.473323 194.011692-432.485015 432.485015-432.485015 238.451834 0 432.44613 194.012715 432.44613 432.485015C959.985546 639.184937 765.99125 833.179232 527.539416 833.179232zM527.539416-57.334567c-252.579599 0-458.06767 205.489094-458.06767 458.06767 0 252.55811 205.488071 458.028784 458.06767 458.028784 252.55811 0 458.028784-205.471698 458.028784-458.028784C985.568201 148.153504 780.097526-57.334567 527.539416-57.334567zM527.539416 838.295763c-241.294578 0-437.601546-196.289572-437.601546-437.562661 0-241.294578 196.306968-437.601546 437.601546-437.601546 241.272066 0 437.562661 196.306968 437.562661 437.601546C965.102077 642.006192 768.811482 838.295763 527.539416 838.295763zM527.539416-62.451098c-255.400854 0-463.184201 207.78437-463.184201 463.184201 0 255.379365 207.783347 463.145315 463.184201 463.145315 255.379365 0 463.145315-207.765951 463.145315-463.145315C990.684732 145.333272 782.918781-62.451098 527.539416-62.451098zM527.539416 853.645356c-249.758344 0-452.951139-203.175399-452.951139-452.912253 0-249.758344 203.192795-452.951139 452.951139-452.951139 249.736854 0 452.912253 203.192795 452.912253 452.951139C980.45167 650.469957 777.276271 853.645356 527.539416 853.645356zM527.539416-41.984974c-244.115833 0-442.718077 198.602244-442.718077 442.718077 0 244.094344 198.603267 442.679192 442.718077 442.679192 244.093321 0 442.679192-198.585871 442.679192-442.679192C970.218608 156.617269 771.632737-41.984974 527.539416-41.984974zM527.539416 833.179232c-238.473323 0-432.485015-193.994296-432.485015-432.44613 0-238.473323 194.011692-432.485015 432.485015-432.485015 238.451834 0 432.44613 194.012715 432.44613 432.485015C959.985546 639.184937 765.99125 833.179232 527.539416 833.179232zM184.460664 97.299279 170.094468 114.423285l6.526647 6.621814c3.626597 3.679809 7.377014 7.328919 11.147898 10.847046 25.702382 23.979134 56.480362 46.197158 91.478458 66.035996 41.424458 23.482831 88.948845 43.701315 141.354402 60.144822-1.076518 77.464279-17.323551 96.360651-18.282389 97.4034l-0.724501 0.692778c-5.396917 5.659907-52.5611 56.551994-46.785559 99.916641 1.690502 12.679787 7.874341 23.617907 18.025539 32.032554-27.522844 78.193897-25.570375 139.074476 5.831822 181.038216 25.659403 34.290991 66.095347 48.347125 95.498004 54.100152 19.460214 3.807722 36.747949 4.606925 47.825238 4.606925 6.063089 0 9.618055-0.248663 9.653871-0.25071l10.199293-0.725524-1.562589-22.212908-10.220782 0.732687 0 0c0 0-2.992147 0.195451-8.080026 0.195451-10.096962 0-25.854854-0.728594-43.584658-4.202719-25.551956-5.006014-60.504002-16.978696-81.907475-45.587268-27.638477-36.941354-27.596522-93.454462 0.124843-167.969573l3.211135-8.633634-7.879458-4.76963c-8.949836-5.417383-13.877055-12.384052-15.064091-21.295002-3.637854-27.311019 27.643594-67.511603 40.473807-81.236186 6.773264-6.04467 25.569352-31.091112 25.569352-122.031311l0-8.244778-7.887644-2.403746c-122.019031-37.052894-193.552228-87.674828-232.076636-123.616412-3.597945-3.357468-7.167237-6.828522-10.609639-10.317996L184.460664 97.299279zM184.154695 89.703277l-20.971637 24.996301 9.794064 9.936303c3.681856 3.735068 7.484462 7.435343 11.301394 10.996448 25.995047 24.251334 57.097416 46.708811 92.444459 66.74617 40.748053 23.099091 87.394443 43.083238 138.695852 59.421344-1.463328 69.864184-15.719007 88.800465-16.806781 90.140996l-0.721431 0.696872c-5.569856 5.842055-54.244438 58.395992-48.15372 104.122429 1.694595 12.710486 7.597025 24.02416 17.134239 32.924877-26.91807 78.329996-24.333198 139.731438 7.697309 182.535313 26.635637 35.594683 68.327178 50.129724 98.611925 56.05569 19.863397 3.886517 37.505195 4.702092 48.807612 4.702092 6.271844 0 9.983375-0.260943 10.020214-0.264013l15.294334-1.087774-2.28095-32.423457-15.331173 1.099031 0 0c-0.00307 0-2.894933 0.182149-7.713682 0.182149-9.870812 0-25.27464-0.712221-42.60126-4.107551-24.669866-4.833075-58.366316-16.32685-78.794577-43.630706-26.529213-35.459606-26.251897-90.340541 0.822738-163.120125l4.686742-12.600993-11.500938-6.962575c-7.642051-4.626367-11.659551-10.216689-12.641925-17.59268-3.352351-25.172309 26.863834-63.883983 38.992059-76.908624 8.299013-7.556093 27.096125-34.747385 27.096125-125.683491l0-12.034081-11.512195-3.508917c-121.082706-36.768415-191.948707-86.889953-230.078119-122.463146-3.558036-3.320629-7.076162-6.742565-10.456143-10.169617L184.154695 89.703277zM177.005878 114.145969l7.760754-9.250688 3.938706 3.991917c3.478218 3.527336 7.099698 7.049556 10.761088 10.466376 38.921451 36.31202 111.125937 87.434352 234.08027 124.771725l4.256954 1.297552 0 4.455475c0 89.931219-18.262946 113.218598-23.859407 118.213355l-0.330528 0.323365c-0.465604 0.497327-46.496987 50.201355-41.808198 85.405135 1.385557 10.400884 7.269567 18.810415 17.486256 24.996301l4.257977 2.577708-1.735527 4.665253c-28.366048 76.249615-28.172643 134.393873 0.575098 172.817997 22.378683 29.912263 58.586326 42.363853 85.020372 47.542806 18.131963 3.551896 34.244942 4.297886 44.569078 4.297886 5.194302 0 8.283664-0.197498 8.413624-0.206708l5.142114-0.36839 0.845251 12.002358-5.099135 0.36225c-0.030699 0.002047-3.483334 0.237407-9.290597 0.237407-10.850116 0-27.783787-0.782829-46.842865-4.511757-28.520567-5.581112-67.699891-19.157315-92.38306-52.144614-30.302143-40.494273-32.019251-99.80203-5.102205-176.273702l1.183965-3.362584-2.744507-2.27481c-9.237385-7.658424-14.694677-17.337877-16.219403-28.770254-5.433756-40.797172 39.742143-89.743954 45.336558-95.624894l0.86674-0.843204c1.895163-2.058892 18.544355-22.37766 19.634176-100.796684l0.053212-3.811816-3.63683-1.140986c-52.05354-16.33299-99.278097-36.424584-140.363841-59.71401-34.649148-19.642362-65.101717-41.621956-90.511433-65.326844-3.713578-3.463891-7.41283-7.062859-10.994402-10.69662L177.005878 114.145969zM870.5844 97.316675l-7.878434 8.000208c-3.448542 3.501754-7.04137 6.996344-10.6782 10.386558C813.512566 151.616372 742.010069 202.198397 620.093369 239.225709l-7.895831 2.40477 0 8.245801c0 91.316775 18.655895 116.079762 25.598005 122.103966 12.865006 13.809517 44.019563 53.950749 40.389896 81.149205-1.190105 8.916067-6.124488 15.885805-15.08558 21.307282l-7.880481 4.776793 3.211135 8.627495c27.721365 74.52739 27.759227 131.047662 0.109494 167.989015-21.418822 28.616758-56.395428 40.584324-81.96785 45.584198-17.704221 3.460822-33.431414 4.187369-43.50791 4.187369-5.105275 0-8.136308-0.197498-8.165983-0.199545l-10.171664-0.676405-1.570775 22.196535 10.239202 0.690732c0.3776 0.025583 3.858888 0.249687 9.653871 0.249687 11.072173 0 28.352745-0.798179 47.796586-4.598738 29.408797-5.749958 69.853951-19.800975 95.51847-54.091966 31.407314-41.962717 33.364899-102.846366 5.842055-181.050496 10.162454-8.417717 16.353456-19.361977 18.047028-32.047904 5.78168-43.348274-41.370223-94.244454-46.765093-99.904361l-0.862647-0.811482c-1.01819-1.095961-17.046235-19.671015-18.107403-97.284697 52.399417-16.444531 99.916641-36.663014 141.332912-60.144822 34.987862-19.836791 65.762773-42.054815 91.466178-66.037019 3.773953-3.520173 7.518231-7.16519 11.127432-10.829649l6.513344-6.613628-7.135514-8.544607L870.5844 97.316675zM652.553665 355.295238l-0.480954-0.378623C652.093177 354.931964 652.271232 355.035318 652.553665 355.295238zM870.879112 89.72579l-11.818163 12.002358c-3.396353 3.447519-6.935969 6.890944-10.521634 10.234085-38.120203 35.543517-108.955504 85.627193-229.931786 122.369002l-11.525498 3.50994 0 12.036128c0 91.453898 18.801205 118.358665 27.14115 125.776611 12.117992 13.065574 42.231847 51.761897 38.890752 76.800153-0.985444 7.382131-5.009084 12.976546-12.662391 17.605983l-11.504008 6.972808 4.687766 12.593829c27.075659 72.791863 27.347858 127.679961 0.808412 163.138544-20.443611 27.313066-54.16462 38.801724-78.852906 43.62866-17.303085 3.382027-32.677237 4.092201-42.526559 4.092201-4.915963 0-7.789407-0.186242-7.818059-0.188288l-15.264659-1.01512-2.293229 32.398898 15.360849 1.036609c0.396019 0.026606 4.03899 0.260943 9.998725 0.260943 11.298324 0 28.930913-0.814552 48.777937-4.693906 30.292933-5.922896 71.993684-20.453844 98.633415-56.047504 32.03767-42.803875 34.626635-104.208387 7.708566-182.547593 9.549493-8.903787 15.458063-20.222577 17.155728-32.939203 6.097882-45.714158-42.564421-98.269118-48.133254-104.112196l-0.881067-0.839111c-1.079588-1.320065-15.167444-19.938098-16.610306-89.998757 51.29527-16.340153 97.93552-36.323277 138.675386-59.421344 35.338856-20.035312 66.438155-42.491767 92.433202-66.747193 3.811816-3.555989 7.608282-7.250124 11.281951-10.980076l9.770528-9.920954-10.110265-12.106736L870.879112 89.72579zM617.314069 245.420805l4.269233-1.300622c122.849956-37.311791 195.021695-88.393189 233.933937-124.674511 3.690042-3.441379 7.336082-6.987135 10.833743-10.539031l3.939729-4.000104 7.762801 9.255805-3.257184 3.305279c-3.573385 3.62762-7.265474 7.221472-10.971889 10.679223-25.409716 23.708981-55.858192 45.687552-90.499154 65.327868-41.077557 23.289426-88.294952 43.38102-140.342352 59.71401l-3.63683 1.140986 0.052189 3.810792c1.076518 78.653361 17.594727 98.673323 19.475564 100.697423l0.058328 0.062422-0.026606 0.034792 0.336668 0.265036 0.63445 0.597611c5.65479 5.948479 50.737568 54.848189 45.302789 95.597265-1.526773 11.438517-6.990205 21.123087-16.238846 28.783557l-2.746554 2.27481 1.182942 3.363607c26.917046 76.479859 25.196869 135.791709-5.111414 176.285982-24.688285 32.987299-63.87682 46.559409-92.403526 52.136428-19.042705 3.722788-35.969213 4.503571-46.815235 4.503571-5.623068 0-8.947789-0.212848-9.309016-0.237407l-5.117554-0.344854 0.848321-11.994172 5.088902 0.338714-0.001023 0c0.00307 0 3.113921 0.211824 8.506744 0.211824 10.301623 0 26.38288-0.74292 44.48926-4.282536 26.454512-5.172813 62.687738-17.619286 85.082794-47.540759 28.758997-38.423101 28.956495-96.574522 0.589424-172.838464l-1.734504-4.662183 4.261047-2.582825c10.224876-6.185886 16.116049-14.59951 17.504676-25.00551 4.677533-35.051307-41.252543-84.815711-41.718147-85.314061l-0.38988-0.376577c-5.591345-4.852518-23.834848-27.722388-23.834848-118.239961L617.313046 245.420805zM527.539416-59.129446c-62.072731 0-122.29737 12.160971-178.998767 36.144198-54.761208 23.162536-103.94028 56.319703-146.170081 98.549503s-75.386968 91.407849-98.549503 146.170081c-23.984251 56.701396-36.144198 116.926036-36.144198 178.997744 0 62.073754 12.160971 122.295324 36.144198 178.99365 23.162536 54.756091 56.319703 103.930047 98.550527 146.155754 42.22673 42.222637 91.405803 75.374688 146.170081 98.5362 56.701396 23.979134 116.925013 36.138058 178.997744 36.138058 62.073754 0 122.295324-12.158924 178.991604-36.138058 54.760185-23.160489 103.933117-56.31254 146.156778-98.5362 42.225707-42.22673 75.377758-91.400686 98.5362-146.156778 23.979134-56.69321 36.137035-116.91478 36.137035-178.99365 0-62.074777-12.158924-122.298394-36.137035-178.997744-23.159466-54.762231-56.311517-103.94028-98.537224-146.169057-42.222637-42.2298-91.396593-75.386968-146.155754-98.550527C649.83474-46.968475 589.612147-59.129446 527.539416-59.129446zM527.539416 840.089619c-59.319014 0-116.860545-11.614525-171.026188-34.521235-52.324716-22.128997-99.316983-53.80851-139.67004-94.158497-40.358173-40.35408-72.042803-87.341231-94.172823-139.65776C99.759563 517.590578 88.142991 460.051093 88.142991 400.73208c0-59.31799 11.616572-116.860545 34.527374-171.025165 22.131043-52.321646 53.81465-99.313913 94.1718-139.67004 40.35715-40.35715 87.348394-72.040756 139.671063-94.1718 54.165644-22.910802 111.707175-34.527374 171.026188-34.527374 59.319014 0 116.857475 11.617595 171.019025 34.527374 52.318576 22.132066 99.305727 53.815673 139.656737 94.170776 40.352033 40.356127 72.03257 87.34737 94.160543 139.671063 22.906709 54.163597 34.520211 111.704105 34.520211 171.025165 0 59.32413-11.614525 116.863614-34.520211 171.020048-22.12695 52.316529-53.806463 99.30368-94.15952 139.65776-40.349987 40.349987-87.338161 72.0295-139.65776 94.158497C644.397914 828.475094 586.859453 840.089619 527.539416 840.089619zM527.539416-57.782775c-252.827239 0-458.516902 205.689662-458.516902 458.516902 0 252.804726 205.689662 458.476993 458.516902 458.476993 252.80575 0 458.476993-205.672266 458.476993-458.476993C986.016409 147.906887 780.345166-57.782775 527.539416-57.782775zM527.539416 837.847555c-241.046938 0-437.153338-196.089004-437.153338-437.113429 0-241.046938 196.1064-437.153338 437.153338-437.153338 241.025449 0 437.113429 196.1064 437.113429 437.153338C964.652845 641.759575 768.564865 837.847555 527.539416 837.847555z"  horiz-adv-x="1024" />

    
    <glyph glyph-name="xinxi2" unicode="&#58949;" d="M367.219283 499.282775c0 17.457966-14.447972 31.905938-31.905938 31.905938l-46.955908 0c-17.457966 0-31.905938-14.447972-31.905938-31.905938 0-17.457966 14.447972-31.905938 31.905938-31.905938l46.955908 0C352.771311 467.376837 367.219283 481.824809 367.219283 499.282775zM736.244562 467.376837c17.457966 0 31.905938 14.447972 31.905938 31.905938 0 17.457966-14.447972 31.905938-31.905938 31.905938L455.71311 531.188713c-17.457966 0-31.905938-14.447972-31.905938-31.905938 0-17.457966 14.447972-31.905938 31.905938-31.905938L736.244562 467.376837zM511.699001 882.756026c-282.939447 0-511.699001-200.465608-511.699001-447.285126 0-141.469724 75.249853-267.287478 192.037625-349.159318l0-167.957672c0-25.885949 28.293945-41.537919 49.965902-28.293945L385.279248-23.252205c13.243974 7.825985 18.661964 24.079953 13.243974 39.129924 0 0 0 0.601999 0 0.601999-6.621987 18.661964-28.895944 25.885949-45.751911 15.651969l-69.831864-42.139918c-12.641975-7.223986-28.293945 1.805996-28.293945 16.253968l1.805996 114.981775c-115.583774 69.229865-191.435626 184.21164-191.435626 314.243386 0 211.903586 200.465608 383.473251 447.887125 383.473251 247.421517 0 447.887125-171.569665 447.887125-383.473251 0-211.903586-200.465608-383.473251-447.887125-383.473251-6.621987 0-13.243974 0-19.865961 0.601999-22.875955 1.203998-37.323927-22.875955-27.691946-43.343915 0-0.601999 0.601999-1.203998 0.601999-1.805996 4.815991-10.23398 14.447972-18.059965 25.885949-18.661964 6.621987-0.601999 13.845973-0.601999 21.069959-0.601999 282.939447 0 512.300999 200.465608 512.300999 447.285126C1024 682.290417 794.638448 882.756026 511.699001 882.756026zM352.169312 275.339212l320.263374 0c17.457966 0 31.905938 14.447972 31.905938 31.905938 0 17.457966-14.447972 31.905938-31.905938 31.905938L352.169312 339.151088c-17.457966 0-31.905938-14.447972-31.905938-31.905938C320.263374 289.787184 334.109347 275.339212 352.169312 275.339212z"  horiz-adv-x="1026" />

    
    <glyph glyph-name="yizan" unicode="&#58901;" d="M687.500578 83.90289zM543.963006 480.184971c-47.500578 0-89.230058-44.984971-89.230058-96.184971v-381.484393c0-49.128324 39.953757-89.082081 89.230058-89.082081H649.618497V480.184971h-105.655491zM1405.63237 469.82659c-17.017341 22.492486-42.469364 35.366474-69.993064 35.366474H1066.469364c18.201156 20.568786 29.595376 56.971098 30.187283 68.513294l3.995376 16.869365c15.241618 60.966474 12.726012 125.040462-7.546821 185.563005l-7.250867 20.272833c-11.83815 35.366474-46.168786 60.22659-83.606936 60.226589h-2.811561c-49.128324 0-92.337572-41.433526-92.337572-88.63815v-28.115607c0-128.591908-82.867052-229.660116-200.212717-254.076301V-86.566474h510.520231c39.953757 0 75.320231 27.523699 86.122544 66.885549L1420.873988 389.919075c7.694798 27.079769 2.071676 56.971098-15.241618 79.907515z"  horiz-adv-x="1879" />

    
    <glyph glyph-name="zhifubaozhifu" unicode="&#58964;" d="M998.912 201.76384 998.912 680.93952c0 103.296-83.82464 187.12064-187.18208 187.12064L212.72064 868.06016C109.42976 868.06016 25.6 784.23552 25.6 680.93952l0-599.00928c0-103.29088 83.7632-187.11552 187.12064-187.11552l599.00928 0c92.03712 0 168.6272 66.54976 184.25856 154.08128-49.6384 21.4784-264.73984 114.37056-376.79616 167.84384-85.27872-103.30112-174.58688-165.28896-309.20704-165.28896s-224.47104 82.9184-213.70368 184.38656c7.1168 66.6112 52.80256 175.49824 251.23328 156.8256 104.57088-9.79456 152.448-29.32736 237.73696-57.48736 22.07744 40.44288 40.38144 84.98176 54.31296 132.36736L261.38624 467.54304l0 37.47328 187.11552 0L448.50176 572.29824 220.2624 572.29824l0 41.2416 228.23936 0L448.50176 710.62528c0 0 2.06848 15.21152 18.86208 15.21152l93.55776 0 0-112.29696 243.31776 0 0-41.2416-243.31776 0 0-67.28192 198.49728 0c-18.2528-74.27584-45.93152-142.52544-80.60416-202.14272C736.48128 282.0096 998.912 201.76384 998.912 201.76384L998.912 201.76384 998.912 201.76384 998.912 201.76384zM295.08608 115.69664c-142.22336 0-164.73088 89.7792-157.18912 127.31904 7.48032 37.3504 48.6656 86.07232 127.74912 86.07232 90.88 0 172.27264-23.23456 269.96736-70.79936C466.9952 168.91904 382.68416 115.69664 295.08608 115.69664L295.08608 115.69664 295.08608 115.69664z"  horiz-adv-x="1024" />

    
    <glyph glyph-name="fenxiang" unicode="&#58895;" d="M844.214857 405.625905c-57.295238-57.027048-104.17981-8.704-65.584762 33.377524l128.999619 200.996571c-202.020571 3.779048-321.438476-71.533714-372.370285-139.654095-37.083429-49.761524-59.343238-165.814857-66.852572-196.534857-6.290286-25.819429-27.111619-42.983619-52.906667-39.107048-27.37981 6.680381-42.349714 48.64-35.669333 75.946667 1.29219 5.290667 28.574476 129.901714 85.625905 206.238476 50.127238 67.193905 149.26019 153.136762 377.685333 164.815238L692.419048 804.937143c-23.405714 15.701333-37.61981 41.496381-12.653715 72.508952 15.798857 23.186286 45.763048 5.290667 69.046857-10.361905l251.148191-158.549333a50.907429 50.907429 0 0 0 13.726476-70.631619l-169.472-232.277333z m62.464 234.179047c-2.169905-0.390095-6.875429-1.26781 0 0z m0.950857 0.195048l-0.950857-0.195048a21.089524 21.089524 0 0 1 0.950857 0.195048zM512 830.610286C265.728 830.610286 65.389714 630.272 65.389714 384S265.728-62.610286 512-62.610286 958.610286 137.728 958.610286 384a32.670476 32.670476 0 0 0 65.365333 0c0-282.307048-229.668571-511.975619-511.975619-511.975619C229.692952-127.975619 0.024381 101.692952 0.024381 384 0.024381 666.307048 229.692952 895.975619 512 895.975619a32.670476 32.670476 0 1 0 0-65.365333z"  horiz-adv-x="1024" />

    
    <glyph glyph-name="ziyuan1" unicode="&#58914;" d="M406.736182-50.759263m-77.240737 0a77.240737 77.240737 0 1 1 154.481473 0 77.240737 77.240737 0 1 1-154.481473 0ZM1015.373632-50.759263m-77.240737 0a77.240737 77.240737 0 1 1 154.481473 0 77.240737 77.240737 0 1 1-154.481473 0ZM620.370371 84.167593H404.291855a160.836724 160.836724 0 0 0-141.770973 146.659626c0 2.933193-48.886542 345.627853-64.530235 491.309749a132.971395 132.971395 0 0 1-38.620369 91.417834 48.886542 48.886542 0 0 1-28.84306 9.777309H36.176192A35.687176 35.687176 0 1 0 36.176192 895.684193h86.040314a116.34997 116.34997 0 0 0 79.685064-23.954406 195.546169 195.546169 0 0 0 66.485697-140.304376c17.599155-146.659626 64.04137-488.865422 64.530236-488.865421S342.694811 162.38606 408.691643 157.008541c74.307544-4.399789 677.567474 0 684.411591 0a34.22058 34.22058 0 0 0 35.687175-35.198311 35.687176 35.687176 0 0 0-35.19831-35.687175c-17.599155 0-275.720098-1.955462-473.221728-1.955462zM434.601511 260.159145a35.687176 35.687176 0 0 0 0 71.374351c3.422058 0 349.049911 7.332981 484.465633 16.132559 105.594931 6.844116 121.72749 53.286331 122.216355 55.241793S1097.014157 617.519768 1112.65785 700.138024a65.996832 65.996832 0 0 1-5.377519 54.752928 52.797466 52.797466 0 0 1-39.109234 9.288443H368.604679a35.687176 35.687176 0 1 0 0 71.374351h691.255706a120.260894 120.260894 0 0 0 97.773084-30.309656 126.616144 126.616144 0 0 0 24.443271-117.816567c-16.132559-83.595987-70.885486-293.319253-73.329813-303.096561s-27.376464-97.773084-186.746591-108.039258c-136.393453-8.799578-483.976767-16.132559-488.865422-16.132559z"  horiz-adv-x="1187" />

    
    <glyph glyph-name="sousuo" unicode="&#58930;" d="M963.871886 14.120996l-145.765124 145.765125c-14.576512 14.576512-51.017794 21.864769-65.594306 7.288256l-7.288257-7.288256L679.629893 240.05694c72.882562 72.882562 116.6121 167.629893 116.6121 276.953736C796.241993 721.081851 621.323843 896 409.964413 896S30.975089 721.081851 30.975089 517.010676c0-211.359431 174.918149-378.989324 378.989324-378.989324 72.882562 0 138.476868 21.864769 196.782918 51.017794l87.459075-87.459075-7.288257-7.288256c-14.576512-14.576512-7.288256-51.017794 7.288257-65.594306l145.765124-145.765125c14.576512-14.576512 36.441281-14.576512 51.017794 0l80.170818 80.170819c7.288256 14.576512 7.288256 36.441281-7.288256 51.017793zM125.72242 517.010676c0 160.341637 131.188612 291.530249 291.530249 291.530249s291.530249-131.188612 291.530249-291.530249-131.188612-291.530249-291.530249-291.530249c-167.629893 0-291.530249 131.188612-291.530249 291.530249z"  horiz-adv-x="1024" />

    
    <glyph glyph-name="sanjiao-copy" unicode="&#59793;" d="M82.526 150.206c-29.001 34.888-28.487 87.117 3.418 120.21l363.272 376.681c33.448 34.659 87.654 34.659 121.091 0l363.261-376.68c31.927-33.094 32.442-85.311 3.429-120.199l-854.47-0.012z"  horiz-adv-x="1024" />

    
    <glyph glyph-name="dianzan" unicode="&#58888;" d="M797.952-106.112H109.312A109.44 109.44 0 0 0 0 3.2V393.792c0 62.208 51.2 116.8 109.312 116.8h109.888c138.816 0 243.456 106.496 243.456 247.744v28.8C462.656 845.12 515.2 896 575.104 896h2.944c45.952 0 88.256-30.464 102.848-74.048l7.168-20.288a356.928 356.928 0 0 0 8.384-200.64l-3.84-15.872c-1.28-10.56-6.336-29.952-15.424-48.832h241.728c33.856 0 65.28-15.936 86.08-43.584 21.12-28.032 28.096-64.576 18.56-97.92l-120.256-419.264a109.696 109.696 0 0 0-105.344-81.664zM109.312 459.2c-30.208 0-57.984-31.104-57.984-65.408v-390.592c0-31.936 26.048-57.984 57.984-57.984h688.64a59.136 59.136 0 0 1 56.128 44.096l120.128 419.776a59.072 59.072 0 0 1-10.176 52.736 56.064 56.064 0 0 1-44.992 23.04H616.704V536.32c7.296 4.096 23.744 40.704 24.832 53.504l0.704 5.312 4.288 18.048a306.88 306.88 0 0 1-6.72 171.648l-7.424 20.288a59.008 59.008 0 0 1-54.336 39.552h-2.944c-31.488 0-61.12-28.032-61.12-57.536v-28.8c0-170.56-126.784-299.136-294.784-299.136H109.312zM231.232-80.448a25.6 25.6 0 0 0-25.664 25.6V459.2a25.6 25.6 0 1 0 51.328 0v-513.984a25.6 25.6 0 0 0-25.664-25.664z"  horiz-adv-x="1026" />

    
    <glyph glyph-name="qianjin" unicode="&#58897;" d="M435.2000000000003-54.88639999999987L505.60000000000025-128l422.39999999999986 438.88640000000004L998.4 384.0000000000001l-70.40000000000002 73.16479999999997L505.5999999999998 895.9999999999999l-70.39999999999998-73.16480000000001L857.6 384.0000000000001z"  horiz-adv-x="1024" />

    
    <glyph glyph-name="shouye" unicode="&#58927;" d="M362.666667 0.085333V256.149333c0 36.266667 33.109333 63.850667 72.533333 63.850667h153.6c39.253333 0 72.533333-27.648 72.533333-63.850667v-256.064h59.904c61.269333 0 110.762667 47.957333 110.762667 106.730667V481.834667L557.162667 756.672a63.808 63.808 0 0 1-90.325334 0L192 481.834667v-375.018667c0-58.88 49.386667-106.730667 110.762667-106.730667H362.666667z m42.666666 0h213.333334V256.149333c0 10.709333-12.586667 21.184-29.866667 21.184h-153.6c-17.408 0-29.866667-10.389333-29.866667-21.184v-256.064z m469.333334 439.082667v-332.352c0-82.645333-68.885333-149.397333-153.429334-149.397333H302.762667C218.133333-42.581333 149.333333 24.064 149.333333 106.816V439.168l-27.584-27.584a21.333333 21.333333 0 1 0-30.165333 30.165333L436.672 786.837333a106.474667 106.474667 0 0 0 150.656 0l345.088-345.088a21.333333 21.333333 0 0 0-30.165333-30.165333L874.666667 439.168z"  horiz-adv-x="1024" />

    
    <glyph glyph-name="xuanze" unicode="&#58896;" d="M512 896C228.072727 896 0 667.927273 0 384s228.072727-512 512-512 512 228.072727 512 512S795.927273 896 512 896z m314.181818-374.690909L456.145455 158.254545c-16.290909-16.290909-41.890909-13.963636-58.181819 0L197.818182 360.727273c-16.290909 16.290909-16.290909 41.890909 0 58.181818 6.981818 6.981818 18.618182 11.636364 27.927273 11.636364 11.636364 0 20.945455-4.654545 27.927272-11.636364l172.218182-172.218182L768 581.818182c16.290909 16.290909 41.890909 13.963636 58.181818 0 16.290909-16.290909 16.290909-44.218182 0-60.509091z"  horiz-adv-x="1024" />

    
    <glyph glyph-name="sousuo1" unicode="&#58926;" d="M709.57156 186.488a415.636 415.636 0 1 0 0 587.727 415.563 415.563 0 0 0 0-587.727zM170.77356 725.286a346.376 346.376 0 1 1 490.016 0 346.449 346.449 0 0 1-489.724-0.292z m636.801-538.798l195.934-195.933a69.334 69.334 0 0 0-98.003-98.004L709.57056 88.485a69.407 69.407 0 0 0 98.296 98.003z"  horiz-adv-x="1024" />

    
    <glyph glyph-name="sexw" unicode="&#58933;" d="M914.765589 792.833802A358.394 358.394 0 0 1 662.393148 895.999177c-97.567254 0-188.850903-38.387116-257.17083-107.963764C276.465532 656.765185 268.810959 451.234166 380.773381 311.052643l-110.248712-112.305165L75.390161 390.22607A43.464269 43.464269 0 1 1 14.496313 328.189748l195.248755-191.478592L73.219461-2.3278930000000173A43.528248 43.528248 0 0 1 104.294746-76.24594100000002a43.185506 43.185506 0 0 1 30.961037 13.0242l136.525607 139.153296 195.134508-191.478592a43.464269 43.464269 0 0 1 60.893848 62.036322L332.560991 137.85362999999995l110.134465 112.305165a360.221958 360.221958 0 0 1 476.98277 33.131737c139.039049 141.895234 136.868349 370.389974-4.912637 509.54327z m-57.123685-448.649422a273.508204 273.508204 0 0 0-386.727348-3.655916c-107.621023 105.56457-109.220486 278.992078-3.655916 386.613101a273.393956 273.393956 0 0 0 386.6131 3.655915c107.621023-105.56457 109.334733-278.992078 3.770164-386.6131z m0 0"  horiz-adv-x="1024" />

    
    <glyph glyph-name="jianshao" unicode="&#58948;" d="M935 472.7H89C40.2 472.7 0.3 432.8 0.3 384c0-48.8 39.9-88.7 88.7-88.7h846c48.8 0 88.7 39.9 88.7 88.7 0 48.8-39.9 88.7-88.7 88.7z"  horiz-adv-x="1024" />

    
    <glyph glyph-name="Group" unicode="&#58959;" d="M486.4 768h51.2v-204.8h-51.2V768z m0-281.6h51.2v-204.8h-51.2v204.8z m0-281.6h51.2v-204.8h-51.2v204.8z"  horiz-adv-x="1024" />

    
    <glyph glyph-name="xuanze-danxuan" unicode="&#58880;" d="M512 384m-320 0a320 320 0 1 1 640 0 320 320 0 1 1-640 0ZM512 896C228.266667 896 0 667.733333 0 384s228.266667-512 512-512 512 228.266667 512 512S795.733333 896 512 896z m0-981.333333C251.733333-85.33333300000004 42.666667 123.73333300000002 42.666667 384S251.733333 853.333333 512 853.333333s469.333333-211.2 469.333333-469.333333-209.066667-469.333333-469.333333-469.333333z"  horiz-adv-x="1024" />

    
    <glyph glyph-name="xuxian" unicode="&#58889;" d="M16384-128V896h5120v-1024h-5120zM8192 896h5120v-1024H8192V896zM0 896h5120v-1024H0V896z"  horiz-adv-x="21504" />

    
    <glyph glyph-name="jia" unicode="&#58907;" d="M947.392 460.672H588.704V819.36a76.672 76.672 0 0 1-153.344 0v-358.688H76.672a76.672 76.672 0 0 1 0-153.344h358.688v-358.688a76.672 76.672 0 0 1 153.344 0V307.328h358.688a76.64 76.64 0 0 1 0 153.344z"  horiz-adv-x="1024" />

    
    <glyph glyph-name="tubiao-xuanze" unicode="&#58954;" d="M512.431158-128a512 512 0 1 0 512 512 512 512 0 0 0-512-512z m0.40421 947.361684a434.957474 434.957474 0 1 1 435.81979-434.930526 435.388632 435.388632 0 0 1-435.81979 434.930526z"  horiz-adv-x="1024" />

    
    <glyph glyph-name="ziyuan" unicode="&#58881;" d="M393.313919 797.67152a294.98544 294.98544 0 0 0 266.797942-422.15694 302.851718 302.851718 0 0 0-138.970918-139.29868A294.98544 294.98544 0 1 0 393.313919 797.67152m0 98.32848a393.313919 393.313919 0 1 1 169.780509-748.607493A393.313919 393.313919 0 0 1 786.627839 502.686081 393.313919 393.313919 0 0 1 393.313919 896zM730.580605 211.63378L917.732479 26.448476000000028a32.77616 32.77616 0 0 0 9.505086-23.598835 32.77616 32.77616 0 0 0-9.832848-23.271073 32.77616 32.77616 0 0 0-22.943312-9.177325 32.77616 32.77616 0 0 0-23.271073 9.505086l-185.185304 185.513066a512.619142 512.619142 0 0 1 46.214385 46.214385m-14.749272 154.047952a397.902582 397.902582 0 0 0-185.513065-185.513065l269.747796-269.747797a131.10464 131.10464 0 1 1 185.513066 185.513066l-269.747797 269.747796z"  horiz-adv-x="1025" />

    
    <glyph glyph-name="nan" unicode="&#58919;" d="M977.889808 456.044126c-2.558993 19.303951-13.753965 347.83211-12.900967 367.022061 1.255997 27.39893-10.290974 44.478886-20.206948 53.993861C929.064933 892.19501 910.268981 898.432994 890.386032 895.146002c-17.316956-2.873993-329.630157-20.959946-347.403111-20.006949-19.978949 1.116997-37.853903-6.726983-51.682868-22.703942-13.378966-15.411961-18.951952-34.903911-16.117959-56.427855 6.175984-50.88087 61.296843-49.612873 61.296843-49.612873l220.997435 5.622985L517.429986 490.761037c-125.282679 76.184805-288.188263 53.465863-389.737003-63.682837-117.2367-135.222654-108.162723-344.943117 20.280948-468.368802 128.480671-123.499684 327.712162-113.907709 444.959862 21.337946 101.51174 117.1207 108.136723 290.022258 24.675937 414.472939L857.653116 655.740615l1.480996-224.068427s3.110992-47.692878 50.428871-54.920859c19.831949-3.013992 38.179902 6.673983 52.513865 23.26694 13.150966 15.187961 18.671952 34.515912 15.81296 56.025857z m-469.896798-394.418991c-74.502809-85.84778-200.913486-91.942765-282.494277-13.577965-81.578791 78.390799-87.326777 211.577459-12.900967 297.427239 74.499809 85.89578 200.910486 91.972765 282.518277 13.577965 81.553791-78.365799 87.324777-211.503459 12.876967-297.427239z"  horiz-adv-x="1024" />

    
    <glyph glyph-name="xianshi-" unicode="&#58956;" d="M928 266.24c-112.64-169.6-256-256-416-256s-303.36 86.4-416 263.04a82.56 82.56 0 0 0 0 98.56C201.6 548.48 342.4 640 512 640s310.4-91.52 416-268.16a93.44 93.44 0 0 0 0-105.6zM512 145.92A176.64 176.64 0 1 1 335.36 320 175.36 175.36 0 0 1 512 145.92zM512 322.56m-100.48 0a100.48 100.48 0 1 1 200.96 0 100.48 100.48 0 1 1-200.96 0ZM512 704a40.32 40.32 0 0 0-37.76 37.76v52.48A40.32 40.32 0 0 0 512 832a40.32 40.32 0 0 0 37.76-37.76v-49.92A40.32 40.32 0 0 0 512 704zM273.92 647.68a40.32 40.32 0 0 0-56.32 12.16L198.4 704a40.96 40.96 0 0 0 12.8 56.32 40.96 40.96 0 0 0 56.32-12.16l18.56-44.16a40.32 40.32 0 0 0-12.16-56.32zM825.6 704l-19.2-44.16a40.32 40.32 0 0 0-56.32-12.16 40.32 40.32 0 0 0-12.16 56.32l18.56 44.16a40.96 40.96 0 0 0 56.32 12.16 40.96 40.96 0 0 0 12.8-56.32z"  horiz-adv-x="1024" />

    
    <glyph glyph-name="weixinzhifu" unicode="&#58939;" d="M390.22 264.908c-61.265-34.02-70.352 19.098-70.352 19.098l-76.782 178.467c-29.544 84.805 25.57 38.237 25.57 38.237s47.289-35.634 83.179-57.347c35.87-21.714 76.758-6.375 76.758-6.375l501.964 230.778C837.947 782.547 684.963 857.6 511.766 857.6 229.11 857.6 0 657.868 0 411.471 0 269.746 75.866 143.606 194.035 61.85l-21.31-122.019s-10.389-35.622 25.615-19.1c24.534 11.265 87.078 51.634 124.31 76.202 58.53-20.316 122.297-31.597 189.144-31.597 282.632 0 511.79 199.733 511.79 446.134 0 71.369-19.31 138.769-53.516 198.595-159.927-95.844-531.91-318.582-579.848-345.157z m0 0"  horiz-adv-x="1024" />

    


  </font>
</defs>
</svg>
